<?xml version="1.0" standalone="no"?>
<!DOCTYPE svg PUBLIC "-//W3C//DTD SVG 20010904//EN"
 "http://www.w3.org/TR/2001/REC-SVG-20010904/DTD/svg10.dtd">
<svg version="1.0" xmlns="http://www.w3.org/2000/svg"
 width="32.000000pt" height="32.000000pt" viewBox="0 0 32.000000 32.000000"
 preserveAspectRatio="xMidYMid meet">

<g transform="translate(0.000000,32.000000) scale(0.100000,-0.100000)"
fill="#000000" stroke="none">
<path d="M200 260 c-6 -11 -8 -20 -6 -20 3 0 10 9 16 20 6 11 8 20 6 20 -3 0
-10 -9 -16 -20z"/>
<path d="M108 206 c-20 -6 -40 -14 -43 -18 -11 -11 42 -21 75 -14 17 3 40 2
53 -3 13 -5 32 -4 47 1 25 10 25 10 -15 28 -46 21 -66 22 -117 6z"/>
<path d="M238 125 c2 -14 9 -25 14 -25 6 0 7 7 4 16 -3 9 -6 20 -6 25 0 5 -4
9 -9 9 -4 0 -6 -11 -3 -25z"/>
<path d="M108 130 c-3 -8 -9 -32 -12 -53 -5 -36 -4 -37 22 -31 33 8 41 14 19
14 -11 0 -17 12 -19 43 -2 23 -6 35 -10 27z"/>
<path d="M199 135 c-1 -6 0 -20 1 -33 1 -13 -7 -30 -17 -38 -17 -14 -16 -15 9
-11 15 2 25 0 22 -4 -3 -5 0 -9 6 -9 8 0 10 13 5 43 -7 39 -24 73 -26 52z"/>
</g>
</svg>
